<mxfile host="app.diagrams.net" modified="2023-04-10T05:26:53.140Z" agent="Mozilla/5.0 (Windows NT 10.0; Win64; x64) AppleWebKit/537.36 (KHTML, like Gecko) Chrome/112.0.0.0 Safari/537.36" version="21.1.5" etag="pbCbEf544ekgcEKyut_3" type="github">
  <diagram name="第 1 页" id="599tq0gx1nukEn-Xvmaz">
    <mxGraphModel>
      <root>
        <mxCell id="0" />
        <mxCell id="1" parent="0" />
      </root>
    </mxGraphModel>
  </diagram>
</mxfile>
